<svg id="Capa_1" enable-background="new 0 0 512 512" height="512" viewBox="0 0 512 512" width="512" xmlns="http://www.w3.org/2000/svg"><g><path d="m256 512c-1.253 0-2.506-.19-3.725-.571-21.49-6.71-53.011-22.983-80.303-41.456-23.683-16.031-55.025-40.819-69.845-67.878-18.988-34.67-32.448-94.178-41.513-152.559h-16.9c-3.095 8.73-11.437 15-21.215 15-12.407 0-22.5-10.093-22.5-22.5s10.093-22.5 22.5-22.5c9.778 0 18.12 6.27 21.215 15h14.661c-9.476-66.06-13.375-127.756-13.375-146.732 0-5.537 2.569-10.517 6.704-12.998 38.449-23.069 104.039-47.52 194.948-72.675 2.702-.748 4.685-1.296 5.834-1.63 2.299-.667 4.728-.667 7.025 0 1.15.334 3.132.882 5.833 1.63 71.312 19.732 127.516 39.226 167.052 57.94 3.744 1.772 5.342 6.244 3.57 9.988s-6.245 5.34-9.988 3.57c-38.759-18.347-94.15-37.539-164.634-57.041-2.316-.641-4.12-1.141-5.345-1.489-1.224.349-3.029.848-5.347 1.49-110.71 30.633-164.72 55.297-190.604 70.705-.026.132-.048.306-.048.51 0 34.972 15.057 233.634 55.284 307.086 10.438 19.059 33.557 41.313 65.097 62.661 25.859 17.503 55.422 32.868 75.619 39.324 20.199-6.456 49.76-21.82 75.619-39.324 31.54-21.349 54.658-43.602 65.097-62.661 40.227-73.452 55.284-272.114 55.284-307.086 0-.233-.028-.425-.06-.564-3.044-2.275-3.932-6.532-1.934-9.861 2.13-3.552 6.737-4.705 10.29-2.573 4.135 2.481 6.704 7.461 6.704 12.998 0 18.976-3.899 80.672-13.375 146.732h14.661c3.095-8.73 11.437-15 21.215-15 12.407 0 22.5 10.093 22.5 22.5s-10.093 22.5-22.5 22.5c-9.778 0-18.12-6.27-21.215-15h-16.9c-9.065 58.38-22.525 117.889-41.513 152.559-14.819 27.059-46.162 51.847-69.845 67.878-27.292 18.473-58.813 34.746-80.305 41.457-1.218.38-2.47.57-3.723.57zm233.5-277.464c-4.136 0-7.5 3.364-7.5 7.5s3.364 7.5 7.5 7.5 7.5-3.364 7.5-7.5-3.364-7.5-7.5-7.5zm-467 0c-4.136 0-7.5 3.364-7.5 7.5s3.364 7.5 7.5 7.5 7.5-3.364 7.5-7.5-3.364-7.5-7.5-7.5zm430.072-146.872c.002.001.004.003.007.004-.002-.001-.004-.002-.007-.004zm-196.572 392.871c-.905 0-1.81-.164-2.669-.491-32.753-12.474-84.887-44.609-112.001-74.775-2.769-3.081-2.516-7.823.564-10.592 3.081-2.768 7.822-2.516 10.592.564 22.261 24.768 64.911 52.501 96.014 66.534l.002-171.405c-7.377 4.917-17.386 11.498-27.489 17.873-11.652 7.352-21.184 13.014-28.329 16.83-10.578 5.649-18.471 9.243-23.718 3.996-5.246-5.246-1.652-13.139 3.997-23.717 3.816-7.146 9.479-16.677 16.83-28.329 6.375-10.103 12.955-20.109 17.871-27.486h-101.491c7.726 47.944 18.276 94.716 31.786 123.721 1.749 3.755.123 8.216-3.632 9.965-3.754 1.749-8.216.123-9.965-3.632-14.809-31.795-26.153-83.816-34.211-135.87-.08-.348-.136-.705-.165-1.069-8.57-55.668-13.383-111.217-14.665-141.987-.121-2.897 1.439-5.604 4.007-6.952 37.701-19.797 96.469-40.821 174.67-62.486 1.311-.363 2.694-.363 4.005 0 78.208 21.667 136.975 42.69 174.67 62.486 2.567 1.348 4.127 4.055 4.007 6.952-2.685 64.433-19.788 226.159-53.12 287.02-18.922 34.55-86.607 77.779-124.89 92.36-.86.327-1.765.49-2.67.49zm7.502-190.162-.002 171.426c39.656-17.745 92.477-54.979 106.903-81.32 31.794-58.052 48.116-217.238 51.068-275.663-25.558-12.901-72.931-32.468-157.967-56.476l-.001 145.358c7.377-4.916 17.382-11.495 27.484-17.869 11.652-7.352 21.184-13.014 28.329-16.83 10.578-5.649 18.471-9.243 23.718-3.996 5.246 5.246 1.652 13.139-3.997 23.717-3.816 7.146-9.479 16.677-16.83 28.329-6.375 10.104-12.955 20.109-17.871 27.487h80.204c4.142 0 7.5 3.358 7.5 7.5s-3.358 7.5-7.5 7.5h-80.204c4.917 7.377 11.497 17.383 17.871 27.486 7.352 11.652 13.014 21.184 16.83 28.329 5.649 10.578 9.242 18.471 3.996 23.717-5.247 5.246-13.14 1.652-23.717-3.996-7.145-3.816-16.676-9.479-28.329-16.83-10.102-6.373-20.108-12.952-27.485-17.869zm-7.502-21.592c1.479 0 2.958.437 4.234 1.31 22.947 15.697 49.53 32.668 64.949 41.129-8.461-15.419-25.432-42.002-41.129-64.949-1.747-2.553-1.747-5.917 0-8.47 15.698-22.947 32.668-49.53 41.129-64.949-15.419 8.461-42.002 25.432-64.949 41.129-2.553 1.747-5.916 1.747-8.469 0-22.947-15.697-49.531-32.668-64.95-41.129 8.46 15.419 25.431 42.002 41.129 64.95 1.747 2.553 1.747 5.917 0 8.47-15.697 22.946-32.668 49.529-41.129 64.949 15.419-8.461 42.002-25.432 64.949-41.129 1.278-.875 2.757-1.311 4.236-1.311zm-152.149-34.245h103.813c-4.917-7.377-11.497-17.383-17.871-27.487-7.352-11.652-13.014-21.184-16.83-28.329-5.649-10.578-9.242-18.471-3.996-23.717 5.246-5.248 13.139-1.653 23.717 3.996 7.145 3.816 16.676 9.479 28.329 16.83 10.104 6.375 20.112 12.957 27.489 17.873l.001-145.363c-85.047 24.009-132.417 43.576-157.979 56.48 1.481 30.039 5.872 79.581 13.327 129.717z"/></g></svg>