<?xml version="1.0" encoding="iso-8859-1"?>
<!-- Generator: Adobe Illustrator 19.0.0, SVG Export Plug-In . SVG Version: 6.00 Build 0)  -->
<svg version="1.1" id="Capa_1" xmlns="http://www.w3.org/2000/svg" xmlns:xlink="http://www.w3.org/1999/xlink" x="0px" y="0px"
	 viewBox="0 0 509.49 509.49" style="enable-background:new 0 0 509.49 509.49;" xml:space="preserve">
<g>
	<g>
		<g>
			<path d="M84.091,471.116l-45.714-45.714L22.144,409.17c-3.276-3.277-8.051-4.557-12.527-3.358
				c-4.476,1.199-7.972,4.694-9.172,9.17c-1.2,4.475,0.079,9.251,3.355,12.528l7.821,7.821c3.568,3.572,3.566,9.36-0.005,12.929
				c-8.875,8.861-12.345,21.785-9.102,33.899c3.243,12.114,12.705,21.577,24.819,24.819s25.038-0.228,33.899-9.102
				c1.715-1.715,4.041-2.679,6.466-2.679c2.425,0,4.752,0.964,6.467,2.679l7.817,7.821c5.067,5.058,13.272,5.058,18.339,0
				c5.056-5.071,5.056-13.277,0-18.349L84.091,471.116z"/>
			
				<rect x="91.421" y="337.696" transform="matrix(-0.7071 -0.7071 0.7071 -0.7071 -83.5874 755.1561)" width="46.366" height="114.386"/>
			<path d="M369.952,27.902L173.635,284.64l19.146,19.144l196.81-196.81c3.57-3.57,9.358-3.57,12.929,0
				c3.57,3.57,3.57,9.358,0,12.929l-196.81,196.81l19.152,19.151l256.72-196.327L509.488,0L369.952,27.902z"/>
			<path d="M261.912,392.339c-3.149,0.835-6.505-0.07-8.808-2.375L119.527,256.392c-2.305-2.305-3.209-5.662-2.375-8.812
				c2.83-10.519,0.61-21.756-6.008-30.408c-6.617-8.652-16.881-13.738-27.773-13.762c-9.354-0.137-18.352,3.579-24.884,10.277
				c-11.232,11.222-13.523,28.591-5.585,42.342c7.938,13.751,24.125,20.452,39.46,16.337c0.768-0.21,1.561-0.315,2.357-0.313
				c2.425-0.002,4.751,0.962,6.464,2.679l43.915,43.914l0.022,0.015l0.015,0.022l45.682,45.681l0.018,0.011l0.012,0.018
				l43.912,43.911c2.307,2.307,3.211,5.669,2.371,8.821c-4.119,15.335,2.581,31.524,16.332,39.463
				c13.751,7.939,31.121,5.647,42.342-5.588c11.23-11.224,13.517-28.594,5.573-42.342
				C293.435,394.91,277.245,388.216,261.912,392.339z"/>
		</g>
	</g>
</g>
<g>
</g>
<g>
</g>
<g>
</g>
<g>
</g>
<g>
</g>
<g>
</g>
<g>
</g>
<g>
</g>
<g>
</g>
<g>
</g>
<g>
</g>
<g>
</g>
<g>
</g>
<g>
</g>
<g>
</g>
</svg>
